<?xml version="1.0" standalone="no"?><!DOCTYPE svg PUBLIC "-//W3C//DTD SVG 1.1//EN" "http://www.w3.org/Graphics/SVG/1.1/DTD/svg11.dtd"><svg t="1593107003210" class="icon" viewBox="0 0 1024 1024" version="1.1" xmlns="http://www.w3.org/2000/svg" p-id="2651" xmlns:xlink="http://www.w3.org/1999/xlink" width="200" height="200"><defs><style type="text/css"></style></defs><path d="M85.333333 796.444444v-142.222222H28.444444a28.444444 28.444444 0 0 1 0-56.888889h56.888889v-170.666666H28.444444a28.444444 28.444444 0 0 1 0-56.888889h56.888889V227.555556H28.444444a28.444444 28.444444 0 1 1 0-56.888889h56.888889V56.888889a56.888889 56.888889 0 0 1 56.888889-56.888889h824.888889a56.888889 56.888889 0 0 1 56.888889 56.888889v910.222222a56.888889 56.888889 0 0 1-56.888889 56.888889H142.222222a56.888889 56.888889 0 0 1-56.888889-56.888889v-113.777778H28.444444a28.444444 28.444444 0 0 1 0-56.888889h56.888889zM142.222222 56.888889v910.222222h824.888889V56.888889H142.222222z m170.666667 85.333333h512a28.444444 28.444444 0 0 1 28.444444 28.444445v170.666666a28.444444 28.444444 0 0 1-28.444444 28.444445H312.888889a28.444444 28.444444 0 0 1-28.444445-28.444445V170.666667a28.444444 28.444444 0 0 1 28.444445-28.444445z m28.444444 56.888889v113.777778h455.111111V199.111111H341.333333z" fill="#ffffff" p-id="2652"></path><path d="M312.888889 483.555556h512a28.444444 28.444444 0 0 1 0 56.888888H312.888889a28.444444 28.444444 0 0 1 0-56.888888z m0 170.666666h512a28.444444 28.444444 0 0 1 0 56.888889H312.888889a28.444444 28.444444 0 0 1 0-56.888889z m0 170.666667h512a28.444444 28.444444 0 0 1 0 56.888889H312.888889a28.444444 28.444444 0 0 1 0-56.888889z" fill="#ffffff" p-id="2653"></path></svg>