<?xml version="1.0" standalone="no"?><!DOCTYPE svg PUBLIC "-//W3C//DTD SVG 1.1//EN" "http://www.w3.org/Graphics/SVG/1.1/DTD/svg11.dtd"><svg t="1593107087293" class="icon" viewBox="0 0 1024 1024" version="1.1" xmlns="http://www.w3.org/2000/svg" p-id="943" xmlns:xlink="http://www.w3.org/1999/xlink" width="200" height="200"><defs><style type="text/css"></style></defs><path d="M934.8 933.7H91.2v-10c0-56.9 11.2-112.1 33.2-164.1 21.3-50.2 51.7-95.3 90.4-134s83.8-69.1 134.1-90.3c52-22 107.2-33.1 164.2-33.1s112.2 11.1 164.2 33.1c50.2 21.2 95.3 51.6 134.1 90.3 38.7 38.7 69.2 83.8 90.4 134 22 52 33.2 107.2 33.2 164.1l-0.2 10z m-823.5-20h803.4c-1.3-50.7-11.8-99.9-31.5-146.3-20.2-47.8-49.2-90.8-86.1-127.7-36.9-36.9-79.9-65.8-127.7-86.1C619.8 532.7 567.2 522 513 522s-106.8 10.6-156.4 31.6c-47.8 20.2-90.8 49.2-127.7 86.1-36.9 36.9-65.9 79.8-86.1 127.7-19.7 46.4-30.3 95.6-31.5 146.3z" p-id="944" fill="#ffffff"></path><path d="M312.8 722.2v-20h26.8c9.9 0 17.9-8 17.9-17.9s-8-17.9-17.9-17.9H195.9v-20h143.7c20.9 0 37.9 17 37.9 37.9s-17 37.9-37.9 37.9h-26.8z" p-id="945" fill="#ffffff"></path><path d="M441.3 778H306.6c-20.9 0-37.9-17-37.9-37.9s17-37.9 37.9-37.9h26.8v20h-26.8c-9.9 0-17.9 8-17.9 17.9s8 17.9 17.9 17.9h134.6v20z" p-id="946" fill="#ffffff"></path><path d="M448.9 833.9H314.3v-20h134.6c9.9 0 17.9-8 17.9-17.9s-8-17.9-17.9-17.9h-26.8v-20h26.8c20.9 0 37.9 17 37.9 37.9s-16.9 37.9-37.9 37.9z" p-id="947" fill="#ffffff"></path><path d="M247.7 889.8h-22.3c-20.9 0-37.9-17-37.9-37.9s17-37.9 37.9-37.9h92.3v20h-92.3c-9.9 0-17.9 8-17.9 17.9s8 17.9 17.9 17.9h22.3v20zM576.8 653.2H550c-20.9 0-37.9-17-37.9-37.9s17-37.9 37.9-37.9h200.1v20h-200c-9.9 0-17.9 8-17.9 17.9s8 17.9 17.9 17.9h26.8l-0.1 20z" p-id="948" fill="#ffffff"></path><path d="M620.5 709.1h-22.3v-20h22.3c9.9 0 17.9-8 17.9-17.9s-8-17.9-17.9-17.9h-54.9v-20h54.9c20.9 0 37.9 17 37.9 37.9s-17 37.9-37.9 37.9z" p-id="949" fill="#ffffff"></path><path d="M725.1 764.9H590.5c-20.9 0-37.9-17-37.9-37.9s17-37.9 37.9-37.9h26.8v20h-26.8c-9.9 0-17.9 8-17.9 17.9s8 17.9 17.9 17.9h134.6v20z" p-id="950" fill="#ffffff"></path><path d="M729.8 820.8h-22.3v-20h22.3c9.9 0 17.9-8 17.9-17.9s-8-17.9-17.9-17.9h-92.3v-20h92.3c20.9 0 37.9 17 37.9 37.9s-16.9 37.9-37.9 37.9zM297.8 929.4l-16.4-11.5c2.1-3 3.2-6.6 3.2-10.2 0-9.9-8-17.9-17.9-17.9h-22.3v-20h22.3c20.9 0 37.9 17 37.9 37.9 0 7.8-2.3 15.3-6.8 21.7zM576.9 889.8h-28.6c-20 0-36.2-16.3-36.2-36.2s16.3-36.2 36.2-36.2h28.6c20 0 36.2 16.3 36.2 36.2s-16.2 36.2-36.2 36.2z m-28.5-52.5c-9 0-16.2 7.3-16.2 16.2s7.3 16.2 16.2 16.2H577c9 0 16.2-7.3 16.2-16.2s-7.3-16.2-16.2-16.2h-28.6z" p-id="951" fill="#ffffff"></path><path d="M921.4 876.6H698.1c-20.9 0-37.9-17-37.9-37.9s17-37.9 37.9-37.9h22.3v20h-22.3c-9.9 0-17.9 8-17.9 17.9s8 17.9 17.9 17.9h223.3v20zM398.8 451.1h-72.4v-20h52.4v-92c0-25.1-20.5-45.6-45.6-45.6H181.8c-25.1 0-45.6 20.5-45.6 45.6v92h48v20h-68v-112c0-36.2 29.4-65.6 65.6-65.6h151.4c36.2 0 65.6 29.4 65.6 65.6v112z" p-id="952" fill="#ffffff"></path><path d="M173.5 341h20v335.9h-20zM317.6 341h20v215.1h-20zM245.5 453.4h20v149.1h-20z" p-id="953" fill="#ffffff"></path><path d="M255.5 293.2c-38.3 0-69.5-31.2-69.5-69.5V197c0-38.3 31.2-69.5 69.5-69.5S325 158.7 325 197v26.7c0 38.3-31.2 69.5-69.5 69.5z m0-145.6c-27.3 0-49.5 22.2-49.5 49.5v26.7c0 27.3 22.2 49.5 49.5 49.5s49.5-22.2 49.5-49.5v-26.7c0-27.3-22.2-49.5-49.5-49.5z" p-id="954" fill="#ffffff"></path><path d="M582 357.4h54.2v20H582zM391.8 312.2h-20v-46.7c0-36.2 29.4-65.6 65.6-65.6h151.4c36.2 0 65.6 29.4 65.6 65.6v44.8h-20v-44.8c0-25.1-20.5-45.6-45.6-45.6H437.4c-25.1 0-45.6 20.5-45.6 45.6v46.7zM389 357.4h50.8v20H389z" p-id="955" fill="#ffffff"></path><path d="M429.1 267.3h20v256.9h-20zM573.1 267.3h20v247.6h-20zM501.1 379.7h20v125.9h-20z" p-id="956" fill="#ffffff"></path><path d="M511.1 219.6c-38.3 0-69.5-31.2-69.5-69.5v-26.7c0-38.3 31.2-69.5 69.5-69.5s69.5 31.2 69.5 69.5v26.7c0 38.3-31.2 69.5-69.5 69.5z m0-145.7c-27.3 0-49.5 22.2-49.5 49.5v26.7c0 27.3 22.2 49.5 49.5 49.5s49.5-22.2 49.5-49.5v-26.7c0-27.3-22.2-49.5-49.5-49.5z" p-id="957" fill="#ffffff"></path><path d="M908.7 451.1h-68v-20h48v-92c0-25.1-20.5-45.6-45.6-45.6H691.8c-25.1 0-45.6 20.5-45.6 45.6v92h52.4v20h-72.4v-112c0-36.2 29.4-65.6 65.6-65.6h151.4c36.2 0 65.6 29.4 65.6 65.6v112z" p-id="958" fill="#ffffff"></path><path d="M831.5 341h20v341.1h-20zM687.4 341h20v219.5h-20zM759.5 453.4h20v154h-20z" p-id="959" fill="#ffffff"></path><path d="M769.5 293.2c-38.3 0-69.5-31.2-69.5-69.5V197c0-38.3 31.2-69.5 69.5-69.5S839 158.7 839 197v26.7c-0.1 38.3-31.2 69.5-69.5 69.5z m0-145.6c-27.3 0-49.5 22.2-49.5 49.5v26.7c0 27.3 22.2 49.5 49.5 49.5s49.5-22.2 49.5-49.5v-26.7c-0.1-27.3-22.3-49.5-49.5-49.5z" p-id="960" fill="#ffffff"></path></svg>