<?xml version="1.0" standalone="no"?><!DOCTYPE svg PUBLIC "-//W3C//DTD SVG 1.1//EN" "http://www.w3.org/Graphics/SVG/1.1/DTD/svg11.dtd"><svg t="1593142436703" class="icon" viewBox="0 0 1024 1024" version="1.1" xmlns="http://www.w3.org/2000/svg" p-id="988" xmlns:xlink="http://www.w3.org/1999/xlink" width="200" height="200"><defs><style type="text/css"></style></defs><path d="M341.71 416.5c51.51-25.24 101.99-57.82 151.43-97.8 11.56-8.4 25.76-8.92 42.59-1.58 7.35 4.21 14.2 8.95 20.51 14.2 30.49 25.24 71.5 52.59 123.03 82.02 14.71 9.46 19.96 21.05 15.77 34.7-7.37 12.62-18.93 15.26-34.7 7.89-43.13-24.18-88.87-54.67-137.23-91.49-5.27-4.19-10.52-3.67-15.77 1.58C455.8 406 409 436.49 366.95 457.51c-16.83 8.43-29.45 6.85-37.86-4.73-6.3-14.72-2.11-26.82 12.62-36.28z m151.43 201.9V424.39c1.04-13.65 9.46-21.02 25.24-22.08 14.71 1.06 22.6 8.43 23.66 22.08v64.67h108.84c12.62 1.06 19.96 8.95 22.08 23.66-1.06 14.74-7.89 22.62-20.51 23.66H542.04v82.02h126.19c14.71 1.06 23.12 8.43 25.24 22.08-1.06 14.71-8.95 22.6-23.66 23.66H348.02c-12.62-1.06-19.47-8.95-20.51-23.66 1.04-13.66 7.89-21.02 20.51-22.08h29.97V481.17c1.04-13.65 9.46-20.51 25.24-20.51 14.71 1.06 22.6 8.43 23.66 22.08V618.4h66.25z" fill="#ffffff" p-id="989"></path><path d="M510.49 170.08c74.43 0 144.44 24.5 202.46 70.85 5.08 4.05 11.3 5.67 17.28 5.05 1.29 0.22 2.59 0.4 3.94 0.4 13.06 0 23.75-10.69 23.75-23.75v-79.18c0-13.06-10.69-23.75-23.75-23.75s-23.75 10.69-23.75 23.75v37.48c-59.41-37.8-129.05-58.35-199.92-58.35-205.2 0-372.13 166.94-372.13 372.13 0 50.28 9.86 99.06 29.31 144.99 3.84 9.05 12.63 14.5 21.89 14.5 3.09 0 6.23-0.61 9.25-1.89 12.08-5.12 17.73-19.06 12.61-31.14-16.96-40.04-25.55-82.59-25.55-126.47-0.02-178.99 145.61-324.62 324.61-324.62zM872.23 407.04c-3.08-12.75-15.91-20.63-28.66-17.51-12.75 3.08-20.59 15.91-17.51 28.66 6.01 24.91 9.06 50.65 9.06 76.52 0 179-145.63 324.63-324.63 324.63-59.46 0-117.6-16.21-168.13-46.86-4.41-2.68-9.33-3.7-14.11-3.33-0.62-0.05-1.21-0.19-1.84-0.19-13.06 0-23.75 10.69-23.75 23.75v79.18c0 13.06 10.69 23.75 23.75 23.75s23.75-10.69 23.75-23.75v-41.51c49.84 23.82 104.55 36.47 160.33 36.47 205.2 0 372.13-166.94 372.13-372.13 0.01-29.63-3.49-59.12-10.39-87.68z" fill="#ffffff" p-id="990"></path></svg>