<?xml version="1.0" standalone="no"?><!DOCTYPE svg PUBLIC "-//W3C//DTD SVG 1.1//EN" "http://www.w3.org/Graphics/SVG/1.1/DTD/svg11.dtd"><svg t="1593106935254" class="icon" viewBox="0 0 1024 1024" version="1.1" xmlns="http://www.w3.org/2000/svg" p-id="2464" xmlns:xlink="http://www.w3.org/1999/xlink" width="200" height="200"><defs><style type="text/css"></style></defs><path d="M371.147454 531.610275A284.3219 284.3219 0 0 1 227.564326 284.435674C227.564326 127.341851 354.906177 0 512 0s284.435674 127.341851 284.435674 284.435674-127.341851 284.435674-284.435674 284.435675C270.229677 568.871349 72.461552 757.452201 57.756228 995.52486h-0.085331a28.443567 28.443567 0 1 1-56.68803-3.327897c13.453807-219.868776 165.68378-402.192044 370.164587-460.586688zM512 511.984214a227.548539 227.548539 0 1 0 0-455.097079 227.548539 227.548539 0 0 0 0 455.097079z" fill="#ffffff" p-id="2465"></path><path d="M678.08199 641.203341a28.443567 28.443567 0 0 0-50.857098 25.51388l171.372493 341.550357a28.443567 28.443567 0 0 0 50.857099 0l171.372494-341.550357a28.443567 28.443567 0 0 0-50.857099-25.51388L824.025935 932.095705l-145.943945-290.892364z" fill="#ffffff" p-id="2466"></path></svg>