<?xml version="1.0" standalone="no"?><!DOCTYPE svg PUBLIC "-//W3C//DTD SVG 1.1//EN" "http://www.w3.org/Graphics/SVG/1.1/DTD/svg11.dtd"><svg t="1593140646914" class="icon" viewBox="0 0 1024 1024" version="1.1" xmlns="http://www.w3.org/2000/svg" p-id="1552" xmlns:xlink="http://www.w3.org/1999/xlink" width="200" height="200"><defs><style type="text/css"></style></defs><path d="M208 278.544a8 8 0 0 1-8-8v-112a8 8 0 0 1 8-8h120v-120a8 8 0 0 1 16 0v128a8 8 0 0 1-8 8h-120v104a8 8 0 0 1-8 8z" fill="#ffffff" p-id="1553"></path><path d="M368 70.544a8.032 8.032 0 0 1-5.664-2.336L336 41.856l-26.336 26.336a8 8 0 0 1-11.312-11.312l32-32a8 8 0 0 1 11.312 0l32 32a8 8 0 0 1-5.664 13.664zM720 70.544a8.032 8.032 0 0 1-5.664-2.336L688 41.856l-26.336 26.336a8 8 0 0 1-11.312-11.312l32-32a8 8 0 0 1 11.312 0l32 32a8 8 0 0 1-5.664 13.664z" fill="#ffffff" p-id="1554"></path><path d="M816 278.544a8 8 0 0 1-8-8v-104H688a8 8 0 0 1-8-8v-128a8 8 0 0 1 16 0v120H816a8 8 0 0 1 8 8v112a8 8 0 0 1-8 8zM512 681.376c-74.992 0-136-61.008-136-136s61.008-136 136-136 136 61.008 136 136-61.008 136-136 136z m0-256c-66.176 0-120 53.824-120 120s53.824 120 120 120 120-53.824 120-120-53.824-120-120-120z" fill="#ffffff" p-id="1555"></path><path d="M600.752 471.36l9.536-7.936A128 128 0 0 0 384 545.376h12.08c74.784 0 147.2-26.176 204.672-74.016z" fill="#ffffff" p-id="1556"></path><path d="M396.08 553.376H384a8 8 0 0 1-8-8c0-74.992 61.008-136 136-136a135.728 135.728 0 0 1 104.432 48.928 8 8 0 0 1-1.04 11.28l-9.552 7.936a328.56 328.56 0 0 1-209.76 75.856z m-3.808-16h3.808c72.768 0 143.632-25.632 199.568-72.16l3.168-2.656A119.68 119.68 0 0 0 512 425.36c-63.488 0.016-115.616 49.568-119.728 112.016zM512.064 768.864a8.016 8.016 0 0 1-6.64-3.536l-48.064-71.392a7.968 7.968 0 0 1-1.36-4.464v-25.536a8 8 0 0 1 11.024-7.408 119.808 119.808 0 0 0 89.968 0.096 8 8 0 0 1 11.008 7.408l0.016 25.264c0 1.6-0.464 3.136-1.36 4.464l-47.936 71.568a8.048 8.048 0 0 1-6.656 3.536zM472 687.024l40.048 59.488L552 686.88l-0.016-11.504a135.76 135.76 0 0 1-79.984-0.08v11.728zM624 969.456a8 8 0 0 1-8-8v-112a8 8 0 0 1 16 0v112a8 8 0 0 1-8 8zM400 969.456a8 8 0 0 1-8-8v-112a8 8 0 0 1 16 0v112a8 8 0 0 1-8 8z" fill="#ffffff" p-id="1557"></path><path d="M552 953.456l-39.84 40-40.16-40L496 760.864h32z" fill="#ffffff" p-id="1558"></path><path d="M512.16 1001.456a7.984 7.984 0 0 1-5.648-2.336l-40.16-40a8.032 8.032 0 0 1-2.304-6.656l24-192.592a8 8 0 0 1 7.936-7.008h32a8 8 0 0 1 7.936 7.008l24 192.592a7.936 7.936 0 0 1-2.272 6.64l-39.84 40a7.952 7.952 0 0 1-5.648 2.352z m-31.744-50.896l31.712 31.584 31.44-31.568-22.64-181.696h-17.872L480.416 950.56z" fill="#ffffff" p-id="1559"></path><path d="M512.064 768.864H456a8 8 0 0 1-7.952-8.896l8-71.392a8.016 8.016 0 0 1 14.592-3.568l41.408 61.52 41.312-61.664a8.048 8.048 0 0 1 8.528-3.328c3.264 0.8 5.68 3.552 6.064 6.88l8 71.552a7.968 7.968 0 0 1-7.952 8.896h-55.936z m14.976-16h32.016l-4.576-40.944-27.44 40.944z m-62.08 0h32.08L469.536 712l-4.576 40.864z" fill="#ffffff" p-id="1560"></path><path d="M704 969.456a8 8 0 0 1-8-8v-156.064a72.096 72.096 0 0 0-42.688-65.76l-90.416-40.272-44.192 65.968a8 8 0 0 1-6.624 3.552h-0.016a8.016 8.016 0 0 1-6.64-3.536l-44.32-65.824-90.336 40.144A72.032 72.032 0 0 0 328 805.44v156a8 8 0 0 1-16 0v-156a88.08 88.08 0 0 1 52.272-80.416l96.48-42.88a8.048 8.048 0 0 1 9.888 2.848l41.408 61.52 41.312-61.664a8 8 0 0 1 9.888-2.848l96.56 43.008a88.064 88.064 0 0 1 52.192 80.368v156.064a8 8 0 0 1-8 8.016zM208 582.464c-74.992 0-136-61.008-136-136s61.008-136 136-136 136 61.008 136 136-61.008 136-136 136z m0-256c-66.176 0-120 53.824-120 120s53.824 120 120 120 120-53.824 120-120-53.824-120-120-120z" fill="#ffffff" p-id="1561"></path><path d="M296.752 372.464l9.536-7.936A128 128 0 0 0 80 446.48h12.08a320.08 320.08 0 0 0 204.672-74.016z" fill="#ffffff" p-id="1562"></path><path d="M92.08 454.464H80a8 8 0 0 1-8-8c0-74.992 61.008-136 136-136a135.728 135.728 0 0 1 104.432 48.928 8 8 0 0 1-1.04 11.28l-9.552 7.936a328.528 328.528 0 0 1-209.76 75.856z m-3.808-16h3.808c72.768 0 143.648-25.632 199.552-72.16h0.016l3.168-2.64A119.68 119.68 0 0 0 208 326.464c-63.488 0-115.616 49.552-119.728 112zM208.064 669.968a8.016 8.016 0 0 1-6.64-3.536l-48.064-71.408a7.968 7.968 0 0 1-1.36-4.464v-25.536a8 8 0 0 1 11.024-7.408 119.92 119.92 0 0 0 89.984 0.096 8.096 8.096 0 0 1 7.472 0.784c2.192 1.504 3.52 3.984 3.52 6.64V590.4a7.872 7.872 0 0 1-1.36 4.448l-47.936 71.568a8 8 0 0 1-6.64 3.552zM168 588.112l40.048 59.504 39.952-59.648v-11.504a135.808 135.808 0 0 1-80-0.08v11.728zM96 870.544a8 8 0 0 1-8-8v-112a8 8 0 0 1 16 0v112a8 8 0 0 1-8 8z" fill="#ffffff" p-id="1563"></path><path d="M248 854.544l-39.84 40-40.16-40L192 661.952h32z" fill="#ffffff" p-id="1564"></path><path d="M208.16 902.544a7.984 7.984 0 0 1-5.648-2.336l-40.16-40a8.032 8.032 0 0 1-2.304-6.656l24-192.592a8 8 0 0 1 7.936-7.008h32a8 8 0 0 1 7.936 7.008l24 192.592a7.936 7.936 0 0 1-2.272 6.64l-39.84 40a7.888 7.888 0 0 1-5.648 2.352z m-31.744-50.896l31.712 31.584 31.44-31.568-22.64-181.696h-17.872l-22.64 181.68z" fill="#ffffff" p-id="1565"></path><path d="M208.064 669.968H152a8 8 0 0 1-7.952-8.896l8-71.408a8.016 8.016 0 0 1 14.592-3.568l41.408 61.52 41.312-61.664a8.016 8.016 0 0 1 14.592 3.552l8 71.552a7.968 7.968 0 0 1-7.952 8.896h-55.936v0.016z m14.976-16h32.016l-4.576-40.944-27.44 40.944z m-62.08 0h32.08l-27.504-40.864-4.576 40.864z" fill="#ffffff" p-id="1566"></path><path d="M16 870.544a8 8 0 0 1-8-8v-156a88.032 88.032 0 0 1 52.272-80.416l96.48-42.88a8.032 8.032 0 0 1 9.888 2.848l41.408 61.52 41.312-61.664a8.032 8.032 0 0 1 9.888-2.848l96.56 43.008a87.84 87.84 0 0 1 48.688 55.984 8 8 0 0 1-15.376 4.432 71.808 71.808 0 0 0-39.808-45.808l-90.416-40.272-44.192 65.968a8 8 0 0 1-6.624 3.552h-0.016a8.016 8.016 0 0 1-6.64-3.536l-44.32-65.84-90.336 40.144A72.08 72.08 0 0 0 24 706.544v156a8 8 0 0 1-8 8zM816 582.464c-74.992 0-136-61.008-136-136s61.008-136 136-136 136 61.008 136 136-61.008 136-136 136z m0-256c-66.176 0-120 53.824-120 120s53.824 120 120 120 120-53.824 120-120-53.824-120-120-120z" fill="#ffffff" p-id="1567"></path><path d="M904.752 372.464l9.536-7.936A128 128 0 0 0 688 446.48h12.08a320.08 320.08 0 0 0 204.672-74.016z" fill="#ffffff" p-id="1568"></path><path d="M700.08 454.464H688a8 8 0 0 1-8-8c0-74.992 61.008-136 136-136a135.728 135.728 0 0 1 104.432 48.928 8 8 0 0 1-1.04 11.28l-9.552 7.936a328.528 328.528 0 0 1-209.76 75.856z m-3.808-16h3.808c72.768 0 143.648-25.632 199.552-72.16h0.016l3.168-2.64A119.68 119.68 0 0 0 816 326.464c-63.488 0-115.616 49.552-119.728 112zM815.936 669.968a7.968 7.968 0 0 1-6.64-3.552l-47.936-71.568a7.92 7.92 0 0 1-1.36-4.464l0.016-25.264a8 8 0 0 1 11.008-7.408 119.808 119.808 0 0 0 89.968-0.096 7.968 7.968 0 0 1 11.024 7.408v25.536c0 1.6-0.464 3.152-1.36 4.464l-48.064 71.408a8.064 8.064 0 0 1-6.656 3.536zM776 587.968l39.952 59.648 40.048-59.504v-11.728a135.76 135.76 0 0 1-79.984 0.08l-0.016 11.504z" fill="#ffffff" p-id="1569"></path><path d="M928 870.544a8 8 0 0 1-8-8v-112a8 8 0 0 1 16 0v112a8 8 0 0 1-8 8z" fill="#ffffff" p-id="1570"></path><path d="M776 854.544l39.84 40 40.16-40L832 661.952h-32z" fill="#ffffff" p-id="1571"></path><path d="M815.84 902.544a7.952 7.952 0 0 1-5.664-2.352l-39.84-40a8.032 8.032 0 0 1-2.272-6.64l24-192.592a8 8 0 0 1 7.936-7.008h32a8 8 0 0 1 7.936 7.008l24 192.592a7.92 7.92 0 0 1-2.304 6.656l-40.16 40a7.92 7.92 0 0 1-5.632 2.336z m-31.424-50.88l31.44 31.568 31.712-31.584-22.64-181.68h-17.872l-22.64 181.696z" fill="#ffffff" p-id="1572"></path><path d="M815.936 669.968H760a8.032 8.032 0 0 1-7.952-8.896l8-71.552a8 8 0 0 1 14.592-3.552l41.312 61.664 41.408-61.52a8.112 8.112 0 0 1 8.544-3.312c3.248 0.8 5.664 3.552 6.048 6.88l8 71.408a7.968 7.968 0 0 1-7.952 8.896h-56.064v-0.016z m15.04-16h32.08l-4.576-40.864-27.504 40.864z m-62.032 0h32.016l-27.44-40.944-4.576 40.944z" fill="#ffffff" p-id="1573"></path><path d="M1008 870.544a8 8 0 0 1-8-8v-156a72.032 72.032 0 0 0-42.768-65.792l-90.336-40.144-44.32 65.84a8.016 8.016 0 0 1-6.64 3.536h-0.016a7.968 7.968 0 0 1-6.624-3.552l-44.192-65.968-90.416 40.272a71.84 71.84 0 0 0-39.808 45.808 8 8 0 0 1-15.376-4.432 87.84 87.84 0 0 1 48.688-55.984l96.56-43.008a8 8 0 0 1 9.888 2.848l41.312 61.664 41.408-61.52a8.032 8.032 0 0 1 9.888-2.848l96.48 42.88A88.08 88.08 0 0 1 1016 706.56v156a8 8 0 0 1-8 7.984z" fill="#ffffff" p-id="1574"></path><path d="M512 30.544l-96 96h56v144h80v-144H608z" fill="#ffffff" p-id="1575"></path><path d="M552 278.544h-80a8 8 0 0 1-8-8v-136h-48a8 8 0 0 1-5.664-13.664l96-96a8 8 0 0 1 11.312 0l96 96a7.984 7.984 0 0 1-5.648 13.664h-48v136a8 8 0 0 1-8 8z m-72-16h64v-136a8 8 0 0 1 8-8h36.688L512 41.856l-76.688 76.688H472a8 8 0 0 1 8 8v136z" fill="#ffffff" p-id="1576"></path></svg>