<?xml version="1.0" standalone="no"?><!DOCTYPE svg PUBLIC "-//W3C//DTD SVG 1.1//EN" "http://www.w3.org/Graphics/SVG/1.1/DTD/svg11.dtd"><svg t="1593107240469" class="icon" viewBox="0 0 1024 1024" version="1.1" xmlns="http://www.w3.org/2000/svg" p-id="3157" data-spm-anchor-id="a313x.7781069.0.i15" xmlns:xlink="http://www.w3.org/1999/xlink" width="200" height="200"><defs><style type="text/css"></style></defs><path d="M415.7 243h-45.1v-45.1c0-15.5-12.7-28.2-28.2-28.2s-28.2 12.7-28.2 28.2V243h-45.1c-15.5 0-28.2 12.7-28.2 28.2s12.7 28.2 28.2 28.2h45.1v45.1c0 15.5 12.7 28.2 28.2 28.2s28.2-12.7 28.2-28.2v-45.1h45.1c15.5 0 28.2-12.7 28.2-28.2S431.2 243 415.7 243z" fill="#1296db" p-id="3158" data-spm-anchor-id="a313x.7781069.0.i14" class=""></path><path d="M342.4 386.3c-23.1 0-41.8-18.8-41.8-41.8V313h-31.5c-23.1 0-41.8-18.8-41.8-41.8s18.8-41.8 41.8-41.8h31.5v-31.5c0-23.1 18.8-41.8 41.8-41.8 23.1 0 41.8 18.8 41.8 41.8v31.5h31.5c23.1 0 41.8 18.8 41.8 41.8S438.7 313 415.7 313h-31.5v31.5c0 23-18.8 41.8-41.8 41.8z m-73.3-129.7c-8 0-14.6 6.5-14.6 14.6 0 8 6.5 14.6 14.6 14.6h45.1c7.5 0 13.6 6.1 13.6 13.6v45.1c0 8 6.5 14.6 14.6 14.6 8 0 14.6-6.5 14.6-14.6v-45.1c0-7.5 6.1-13.6 13.6-13.6h45.1c8 0 14.6-6.5 14.6-14.6 0-8-6.5-14.6-14.6-14.6h-45.1c-7.5 0-13.6-6.1-13.6-13.6v-45.1c0-8-6.5-14.6-14.6-14.6-8 0-14.6 6.5-14.6 14.6V243c0 7.5-6.1 13.6-13.6 13.6h-45.1z" fill="#1296db" p-id="3159"></path><path d="M551.1 962H133.7c-7.5 0-13.6-6.1-13.6-13.6V143.8c0-45.1 36.7-81.8 81.8-81.8H483c45.1 0 81.8 36.7 81.8 81.8v804.5c-0.1 7.6-6.2 13.7-13.7 13.7z m-403.8-27.3h390.2V143.8c0-30.1-24.5-54.5-54.5-54.5H201.8c-30.1 0-54.5 24.5-54.5 54.5v790.9z" fill="#ffffff" p-id="3160" data-spm-anchor-id="a313x.7781069.0.i17" class="selected"></path><path d="M412.6 962H272.2c-7.5 0-13.6-6.1-13.6-13.6V723c0-45.1 36.7-81.8 81.8-81.8h4c45.1 0 81.8 36.7 81.8 81.8v225.3c0 7.6-6.1 13.7-13.6 13.7z m-126.8-27.3h113.1V723c0-30.1-24.5-54.5-54.5-54.5h-4c-30.1 0-54.5 24.5-54.5 54.5v211.7zM888.4 962H551.1c-7.5 0-13.6-6.1-13.6-13.6V381.9c0-7.5 6.1-13.6 13.6-13.6h269.1c45.1 0 81.8 36.7 81.8 81.8v498.3c0 7.5-6.1 13.6-13.6 13.6z m-323.7-27.3h310V450.1c0-30.1-24.5-54.5-54.5-54.5H564.7v539.1z" fill="#ffffff" p-id="3161" data-spm-anchor-id="a313x.7781069.0.i16" class="selected"></path><path d="M948.4 962H75.6c-7.5 0-13.6-6.1-13.6-13.6s6.1-13.6 13.6-13.6h872.7c7.5 0 13.6 6.1 13.6 13.6s-6 13.6-13.5 13.6z" fill="#1296db" p-id="3162"></path></svg>