<?xml version="1.0" standalone="no"?><!DOCTYPE svg PUBLIC "-//W3C//DTD SVG 1.1//EN" "http://www.w3.org/Graphics/SVG/1.1/DTD/svg11.dtd"><svg t="1593107168331" class="icon" viewBox="0 0 1024 1024" version="1.1" xmlns="http://www.w3.org/2000/svg" p-id="2635" xmlns:xlink="http://www.w3.org/1999/xlink" width="200" height="200"><defs><style type="text/css"></style></defs><path d="M957.935484 412.901464h66.064516V313.80469h-53.165199l-16.517891-66.064516H69.68309l-16.514367 66.064516H0v99.096774h66.064516v495.487394H0v99.096775h1024v-99.096775h-66.064516v-219.316576l17.786329 5.929951 48.278187-24.14614v-65.039195l-67.005275-93.811613h0.940759v-99.103821z m-862.457284-132.129032h833.040076l8.258946 33.032258H87.222778l8.255422-33.032258zM33.032258 379.869206v-33.032258h957.93196v33.032258H33.032258z m891.870968 33.032258v66.064516H99.096774v-66.064516H924.903226z m-16.517891 235.852084l-33.032258 11.0178-33.032258-11.0178v-24.128523l-42.231962-112.623263h48.542445l59.754033 119.51159v17.240196z m-545.030496 259.631787v-221.018398l15.245928 7.631773 34.304221-11.444136v224.834284h-49.550149v-0.003523z m0-276.033404l75.214892-120.353693H468.762095l-55.857107 111.714216v25.037571l-31.760296 10.58794-17.78633-8.903735v-18.082299h-0.003523z m-33.032258 11.77534H99.096774v-16.517891H330.322581v16.517891z m-148.646923 33.032258H330.322581v231.225806H181.675658v-231.225806z m264.258064-45.6497l59.754034-119.511591h48.542444l-42.231962 112.605647v24.128523l-33.032258 11.017799-33.032258-11.017799v-17.222579z m318.878445-119.511591l44.476394 118.62016v18.13515l-33.032258 11.0178-33.032258-11.0178v-21.140645l-14.336881-115.614665h35.925003z m-69.203902 0l14.583522 116.65408v20.10123l-33.032258 11.0178-33.032258-11.0178v-20.10123l14.583521-116.65408h36.897473z m-84.379362 113.567546l-0.081039 23.173671-33.081586 11.017799-33.032258-11.017799v-18.13515l44.476394-118.602543h35.907386l-14.188897 113.564022zM528.516129 678.050959l49.546625 16.517891 49.546626-16.517891 49.546625 16.517891 49.546626-16.517891 49.546625 16.517891 49.546625-16.517891 16.514368 5.500091v142.251878H528.516129V678.050959zM99.096774 511.998238h300.528365L348.010254 594.580645H99.096774v-82.582407z m0 165.161291h49.546626v231.225806H99.096774v-231.225806z m891.870968 297.290322H33.032258v-33.032258H990.967742v33.032258z m-66.064516-66.064516H445.933722v-224.834285l33.032258 11.0178 16.514368-5.500091v169.769951h379.869206v-164.26986l49.546625-16.517891v230.334376h0.007047z m66.064516-257.947582l-17.78633 8.886118-31.760295-10.58794v-25.037571l-55.857108-111.700122h30.837154l74.570102 104.381936v34.057579h-0.003523z" fill="#ffffff" p-id="2636" data-spm-anchor-id="a313x.7781069.0.i11" class="selected"></path><path d="M875.353077 280.772432H148.6434V66.064516c0-27.317237 22.229388-49.546625 49.546625-49.546625h627.612903c27.317237 0 49.546625 22.229388 49.546626 49.546625v214.707916h0.003523z" fill="#ffffff" p-id="2637" data-spm-anchor-id="a313x.7781069.0.i10" class="selected"></path><path d="M280.772432 198.193548H264.258065a16.542555 16.542555 0 0 1-16.514368-16.51789h-33.032258c0 27.317237 22.229388 49.546625 49.546626 49.546625h16.514367c27.317237 0 49.546625-22.229388 49.546625-49.546625S308.089669 132.129032 280.772432 132.129032H264.258065c-9.101048 0-16.514367-7.416843-16.514368-16.51789s7.416843-16.517891 16.514368-16.517891h16.514367a16.542555 16.542555 0 0 1 16.514367 16.517891h33.032258c0-27.317237-22.229388-49.550149-49.546625-49.550149H264.258065c-27.317237 0-49.546625 22.229388-49.546626 49.550149S236.940828 165.16129 264.258065 165.16129h16.514367a16.542555 16.542555 0 0 1 16.514367 16.517891 16.539031 16.539031 0 0 1-16.514367 16.514367zM396.387097 165.16129h66.064516v66.064516h33.032258V66.064516h-33.032258V132.129032H396.387097V66.064516h-33.032258v165.16129h33.032258zM594.580645 231.225806c36.435902 0 66.064516-29.628614 66.064516-66.064516V132.129032c0-36.435902-29.628614-66.064516-66.064516-66.064516S528.516129 95.69313 528.516129 132.129032v33.032258c0 36.432378 29.628614 66.064516 66.064516 66.064516zM561.548387 132.129032c0-18.216189 14.816069-33.032258 33.032258-33.032258s33.032258 14.816069 33.032258 33.032258v33.032258c0 18.216189-14.816069 33.032258-33.032258 33.032258s-33.032258-14.816069-33.032258-33.032258V132.129032zM726.709677 165.16129h33.032258c27.317237 0 49.546625-22.229388 49.546626-49.550148s-22.229388-49.550149-49.546626-49.550149h-66.064516v165.16129h33.032258V165.16129z m0-66.064516h33.032258c9.101048 0 16.514367 7.416843 16.514368 16.517891s-7.416843 16.517891-16.514368 16.517891h-33.032258v-33.035782z" fill="#1296db" p-id="2638" data-spm-anchor-id="a313x.7781069.0.i9" class=""></path></svg>