<?xml version="1.0" standalone="no"?><!DOCTYPE svg PUBLIC "-//W3C//DTD SVG 1.1//EN" "http://www.w3.org/Graphics/SVG/1.1/DTD/svg11.dtd"><svg t="1593067171851" class="icon" viewBox="0 0 1024 1024" version="1.1" xmlns="http://www.w3.org/2000/svg" p-id="2630" xmlns:xlink="http://www.w3.org/1999/xlink" width="200" height="200"><defs><style type="text/css"></style></defs><path d="M128 170.666667h768a64 64 0 0 1 64 64v661.333333a64 64 0 0 1-64 64H128a64 64 0 0 1-64-64V234.666667a64 64 0 0 1 64-64z" fill="#333549" p-id="2631"></path><path d="M128 192a42.666667 42.666667 0 0 0-42.666667 42.666667v661.333333a42.666667 42.666667 0 0 0 42.666667 42.666667h768a42.666667 42.666667 0 0 0 42.666667-42.666667V234.666667a42.666667 42.666667 0 0 0-42.666667-42.666667H128z" fill="#B9BECA" p-id="2632"></path><path d="M160 234.666667h64a32 32 0 0 1 0 64h-64a32 32 0 0 1 0-64z" fill="#333549" p-id="2633"></path><path d="M160 256a10.666667 10.666667 0 1 0 0 21.333333h64a10.666667 10.666667 0 1 0 0-21.333333h-64z" fill="#FFEEB4" p-id="2634"></path><path d="M288 277.333333h64a10.666667 10.666667 0 1 0 0-21.333333h-64a10.666667 10.666667 0 1 0 0 21.333333zM394.666667 277.333333h21.333333a10.666667 10.666667 0 1 0 0-21.333333h-21.333333a10.666667 10.666667 0 1 0 0 21.333333zM170.666667 341.333333h682.666666a42.666667 42.666667 0 0 1 42.666667 42.666667v469.333333a42.666667 42.666667 0 0 1-42.666667 42.666667H170.666667a42.666667 42.666667 0 0 1-42.666667-42.666667V384a42.666667 42.666667 0 0 1 42.666667-42.666667z" fill="#333549" p-id="2635"></path><path d="M170.666667 362.666667a21.333333 21.333333 0 0 0-21.333334 21.333333v469.333333a21.333333 21.333333 0 0 0 21.333334 21.333334h682.666666a21.333333 21.333333 0 0 0 21.333334-21.333334V384a21.333333 21.333333 0 0 0-21.333334-21.333333H170.666667z" fill="#FFFFFF" p-id="2636"></path><path d="M498.858667 678.549333l-114.986667-50.496L256 896H170.666667l142.677333-298.944L128 515.669333v-85.333333l219.008 96.192L435.413333 341.333333h85.333334l-103.168 216.170667L896 767.637333v85.333334l-302.165333-132.714667L634.432 896h-85.333333z" fill="#333549" p-id="2637"></path><path d="M373.546667 600.192l143.701333 63.125333L566.058667 874.666667h41.536l-44.117334-191.04L874.666667 820.266667v-38.741334L388.821333 568.192 486.912 362.666667H448.853333l-91.498666 191.701333L149.333333 462.997333v38.741334l192.746667 84.650666L204.48 874.666667h38.058667z" fill="#FFEEB4" p-id="2638"></path><path d="M680.853333 564.074667c85.610667-127.466667 138.688-209.877333 159.466667-247.637334a192 192 0 1 0-336.789333-0.256c20.757333 37.845333 73.898667 120.362667 159.616 247.893334a10.666667 10.666667 0 0 0 17.706666 0z" fill="#333549" p-id="2639"></path><path d="M522.24 305.92a170.666667 170.666667 0 1 1 299.392 0.213333c-19.626667 35.712-69.589333 113.429333-149.632 232.853334-80.149333-119.466667-130.133333-197.290667-149.76-233.066667z" fill="#7DACFF" p-id="2640"></path><path d="M672 352a128 128 0 1 0 0-256 128 128 0 0 0 0 256z" fill="#333549" p-id="2641"></path><path d="M672 330.666667a106.666667 106.666667 0 1 1 0-213.333334 106.666667 106.666667 0 0 1 0 213.333334z" fill="#FFEEB4" p-id="2642"></path><path d="M672 288a64 64 0 1 0 0-128 64 64 0 0 0 0 128z" fill="#333549" p-id="2643"></path><path d="M672 266.666667a42.666667 42.666667 0 1 1 0-85.333334 42.666667 42.666667 0 0 1 0 85.333334z" fill="#FFFFFF" p-id="2644"></path></svg>