<?xml version="1.0" standalone="no"?><!DOCTYPE svg PUBLIC "-//W3C//DTD SVG 1.1//EN" "http://www.w3.org/Graphics/SVG/1.1/DTD/svg11.dtd"><svg t="1593142814114" class="icon" viewBox="0 0 1038 1024" version="1.1" xmlns="http://www.w3.org/2000/svg" p-id="1651" xmlns:xlink="http://www.w3.org/1999/xlink" width="202.734375" height="200"><defs><style type="text/css"></style></defs><path d="M583.213285 467.680132L409.310564 724.072076c-123.130844 15.43658-217.559298 103.473325-217.559298 209.841008 0 1.808974 0 3.738547 0.120598 5.547521h-116.497939c-33.405724-52.098457-48.239312-94.910847-44.500765-128.437168C36.420681 760.733954 169.922977 526.0497 225.639383 498.191497c55.595807-27.978801 95.634436-39.073843 222.383229-39.073843 61.625721-0.120598 102.870333 2.532564 135.190673 8.562478z m-135.311271-42.209398c-107.694265 0-194.886821-87.554352-194.886821-195.610411 0-107.935461 87.313155-195.489813 194.886821-195.489813 107.694265 0 194.886821 87.554352 194.886821 195.489813 0.120598 108.176658-87.192557 195.610411-194.886821 195.610411z" fill="#ffffff" p-id="1652"></path><path d="M447.057826 777.497115h-4.703333c-104.558709 0-189.3393 70.067601-189.3393 156.415969 0 1.808974 0 3.738547 0.120598 5.547521H550.289954C497.588505 901.351549 459.720645 843.946767 447.057826 777.497115z" fill="#ffffff" p-id="1653"></path><path d="M746.020963 467.680132C602.147215 467.680132 485.408079 584.298669 485.408079 728.293016s116.739136 260.612884 260.612884 260.612884c143.994347 0 260.612884-116.739136 260.612885-260.612884 0-143.994347-116.618537-260.612884-260.612885-260.612884z m-99.011188 84.298198l42.450595 17.245554c-24.722648 34.491108-62.711106 71.273584-97.564009 93.825462-4.462136-10.130256-14.954187-28.099399-22.190084-37.86786 29.667177-17.727947 61.866918-48.480509 77.303498-73.203156z m59.213756 247.226475l36.420681-19.175127c16.883759 19.175127 36.058886 45.344953 43.897774 63.796491l-39.073843 20.984101c-6.632905-17.969144-25.084442-45.706748-41.244612-65.605465z m216.112119-91.534095h-47.636321v29.667177h44.259569v40.521022h-44.259569v76.579909c0 22.551878-4.100342 33.405724-19.175127 40.159227-14.592392 6.391709-35.697091 7.115299-63.79649 7.115299-1.929572-12.421623-8.200683-30.028972-13.868803-41.968202 18.330939 0.72359 39.073843 0.72359 44.983159 0.361795 5.668119 0 7.477093-1.085385 7.477093-6.391709v-75.73572H685.23943v-40.521023h145.20033v-29.667177H681.500883v-35.214697c-5.668119 7.838888-11.21564 15.798375-17.607349 23.999057v204.896479h-42.812389V745.53857c-11.577435 11.577435-22.913673 21.70769-34.129314 30.752562-3.014957-10.130256-14.230597-35.214698-20.622306-46.189142 32.682134-23.275468 68.982216-60.057944 90.086916-96.358026l39.073843 16.883759c-3.376752 5.306324-6.753504 10.853845-10.492051 16.521965h94.549052v-32.682134h-76.941703V593.946532h76.941703V553.063715h44.259569v40.882817h80.68025v40.521022h-80.68025V667.149688h98.649394v40.521022h-0.120598z" fill="#ffffff" p-id="1654"></path></svg>