<?xml version="1.0" standalone="no"?><!DOCTYPE svg PUBLIC "-//W3C//DTD SVG 1.1//EN" "http://www.w3.org/Graphics/SVG/1.1/DTD/svg11.dtd"><svg t="1593107105182" class="icon" viewBox="0 0 1024 1024" version="1.1" xmlns="http://www.w3.org/2000/svg" p-id="1165" xmlns:xlink="http://www.w3.org/1999/xlink" width="200" height="200"><defs><style type="text/css"></style></defs><path d="M257.2 802.3h26.3v20h-26.3zM257.2 859.9h26.3v20h-26.3zM314.7 859.9H341v20h-26.3zM372.3 859.9h26.3v20h-26.3zM429.9 859.9h26.3v20h-26.3zM279.5 672.4h26.4v20h-26.4z" p-id="1166" fill="#ffffff"></path><path d="M454.4 769.2H90.2V347.7L267.4 88.9l187.1 258.7v421.6z m-344.2-20h324.3V354.1L267.8 123.7 110.2 353.9v395.3z" p-id="1167" fill="#ffffff"></path><path d="M885.8 412.4h-20v-51.6H101.5v-20h784.3zM444.4 749.2h51.1v20h-51.1z" p-id="1168" fill="#ffffff"></path><path d="M869.2 353.2l-177.4-245H267.6v-20H702l183.4 253.3zM342.5 769.2H195.6V530.9h146.9v238.3z m-126.9-20h106.9V550.9H215.6v198.3zM880.9 938.8H488.3V469.6h295.2l47.4 50.7 50 51.8v366.7z m-372.6-20h352.6V580.1L816.3 534l-41.5-44.4H508.3v429.2z" p-id="1169" fill="#ffffff"></path><path d="M870.9 586H769.1V479.6h20V566h81.8zM558.1 530.9h155.7v20H558.1zM558.1 585.9h155.7v20H558.1zM730.7 655.8h83.5v20h-83.5zM730.7 710.8h83.5v20h-83.5zM730.7 791.7h83.5v20h-83.5zM730.7 846.7h83.5v20h-83.5zM596.7 746.1l-45.8-48 14.5-13.8 31.9 33.5 80.3-77.2 13.9 14.4zM596.7 879.9l-45.8-48.1 14.5-13.8 31.9 33.5 80.3-77.2 13.9 14.4z" p-id="1170" fill="#ffffff"></path><path d="M939.7 882.9h-68.8v-20h48.8V427.7H574.6v47.8h-20v-67.8h385.1zM237.609 143.838l16.338-11.536 150.199 212.72-16.338 11.537zM287.8 124.2H723v20H287.8z" p-id="1171" fill="#ffffff"></path></svg>