<?xml version="1.0" standalone="no"?><!DOCTYPE svg PUBLIC "-//W3C//DTD SVG 1.1//EN" "http://www.w3.org/Graphics/SVG/1.1/DTD/svg11.dtd"><svg t="1593107284097" class="icon" viewBox="0 0 1024 1024" version="1.1" xmlns="http://www.w3.org/2000/svg" p-id="3587" xmlns:xlink="http://www.w3.org/1999/xlink" width="200" height="200"><defs><style type="text/css"></style></defs><path d="M1004 1020H20c-8.8 0-16-7.2-16-16v-148.8c0-8.8 7.2-16 16-16h984c8.8 0 16 7.2 16 16v148.8c0 8.8-7.2 16-16 16z m-968-32h952v-116.8H36v116.8z" p-id="3588" fill="#ffffff"></path><path d="M316.8 871.2H67.2c-8.8 0-16-7.2-16-16v-720c0-8.8 7.2-16 16-16h248.8c8.8 0 16 7.2 16 16v720c0.8 8.8-6.4 16-15.2 16z m-233.6-32h216.8v-688H83.2v688zM956.8 871.2H707.2c-8.8 0-16-7.2-16-16v-720c0-8.8 7.2-16 16-16h248.8c8.8 0 16 7.2 16 16v720c0.8 8.8-6.4 16-15.2 16z m-233.6-32h216.8v-688H723.2v688zM636.8 871.2H387.2c-8.8 0-16-7.2-16-16V20c0-8.8 7.2-16 16-16h248.8c8.8 0 16 7.2 16 16v835.2c0.8 8.8-6.4 16-15.2 16z m-233.6-32h216.8V36H403.2v803.2z" p-id="3589" fill="#ffffff"></path><path d="M879.2 272H784.8c-4.8 0-8-3.2-8-8s3.2-8 8-8h94.4c4.8 0 8 3.2 8 8s-3.2 8-8 8zM879.2 380.8H784.8c-4.8 0-8-3.2-8-8s3.2-8 8-8h94.4c4.8 0 8 3.2 8 8s-3.2 8-8 8zM250.4 390.4H133.6c-4.8 0-8-3.2-8-8V201.6c0-4.8 3.2-8 8-8h117.6c4.8 0 8 3.2 8 8v181.6c-0.8 4-4 7.2-8.8 7.2z m-108.8-16h101.6V209.6H141.6v164.8zM572.8 390.4H451.2c-4.8 0-8-3.2-8-8V100.8c0-4.8 3.2-8 8-8h121.6c4.8 0 8 3.2 8 8v282.4c0 4-3.2 7.2-8 7.2z m-113.6-16h105.6V108.8H459.2v265.6zM512 752.8c-42.4 0-76.8-34.4-76.8-76.8s34.4-76.8 76.8-76.8 76.8 34.4 76.8 76.8-34.4 76.8-76.8 76.8z m0-137.6c-33.6 0-60.8 27.2-60.8 60.8s27.2 60.8 60.8 60.8 60.8-27.2 60.8-60.8-27.2-60.8-60.8-60.8z" p-id="3590" fill="#ffffff"></path></svg>