<?xml version="1.0" standalone="no"?><!DOCTYPE svg PUBLIC "-//W3C//DTD SVG 1.1//EN" "http://www.w3.org/Graphics/SVG/1.1/DTD/svg11.dtd"><svg t="1593106914413" class="icon" viewBox="0 0 1024 1024" version="1.1" xmlns="http://www.w3.org/2000/svg" p-id="2277" xmlns:xlink="http://www.w3.org/1999/xlink" width="200" height="200"><defs><style type="text/css"></style></defs><path d="M371.147454 531.610275A284.3219 284.3219 0 0 1 227.564326 284.435674C227.564326 127.341851 354.906177 0 512 0s284.435674 127.341851 284.435674 284.435674-127.341851 284.435674-284.435674 284.435675C270.229677 568.871349 72.461552 757.452201 57.756228 995.52486h-0.085331a28.443567 28.443567 0 1 1-56.68803-3.327897c13.453807-219.868776 165.68378-402.192044 370.164587-460.586688zM512 511.984214a227.548539 227.548539 0 1 0 0-455.097079 227.548539 227.548539 0 0 0 0 455.097079z" fill="#ffffff" p-id="2278"></path><path d="M565.303245 809.902139c0.199105-127.256521 102.112407-230.336009 227.832976-230.535114a226.809007 226.809007 0 0 1 161.730124 66.671722 232.184841 232.184841 0 0 1 67.781021 162.839424c4.892294 65.818415-35.63979 126.403214-97.845872 146.285267v3.356341a63.14472 63.14472 0 0 1-18.232327 45.964805 63.62826 63.62826 0 0 1-46.078579 19.483844 62.462074 62.462074 0 0 1-33.193643-9.073498 65.676197 65.676197 0 0 1-66.330399 0 61.15367 61.15367 0 0 1-33.1652 9.073498c-35.326911-0.881751-63.798922-29.666641-64.652229-65.420205v-2.360817c-62.206082-19.910497-102.709722-80.495296-97.845872-146.285267z m228.174298-173.647979h-0.255992c-94.233539 0.142218-170.888953 77.679383-171.031171 173.704866l-0.142218 4.124318c-2.958131 39.70722 21.361119 76.058099 58.423088 87.890623l39.536559 12.685831v42.49469c0.142218 5.574939 4.323422 9.813031 8.874393 9.926805a4.266535 4.266535 0 0 0 2.303929-0.654202l29.040882-17.834117 29.439092 17.179915a8.789062 8.789062 0 0 0 8.959724 0l29.211544-17.066141 28.955551 17.549681c0.910194 0.568871 1.934163 0.853307 3.9821 0.824864 1.791945 0 3.555446-0.739533 5.404278-2.673696 1.137743-1.137743 1.791945-2.78747 1.735057-5.887818v-44.883949l39.565003-12.657388c37.061968-11.832524 61.381219-48.211847 58.423087-87.890623l-0.142218-3.868325a175.297706 175.297706 0 0 0-51.11309-122.961543 169.921872 169.921872 0 0 0-121.169598-50.003791zM738.43924 810.641672a35.554459 35.554459 0 1 1 0-71.108919 35.554459 35.554459 0 0 1 0 71.108919z m113.77427 0a35.554459 35.554459 0 1 1 0-71.108919 35.554459 35.554459 0 0 1 0 71.108919z" fill="#ffffff" p-id="2279"></path></svg>