<?xml version="1.0" standalone="no"?><!DOCTYPE svg PUBLIC "-//W3C//DTD SVG 1.1//EN" "http://www.w3.org/Graphics/SVG/1.1/DTD/svg11.dtd"><svg t="1593106875054" class="icon" viewBox="0 0 1024 1024" version="1.1" xmlns="http://www.w3.org/2000/svg" p-id="2090" xmlns:xlink="http://www.w3.org/1999/xlink" width="200" height="200"><defs><style type="text/css"></style></defs><path d="M371.131668 531.610275A284.3219 284.3219 0 0 1 227.548539 284.435674C227.548539 127.341851 354.890391 0 511.984214 0s284.435674 127.341851 284.435674 284.435674-127.341851 284.435674-284.435674 284.435675C270.213891 568.871349 72.445766 757.452201 57.740442 995.52486h-0.085331a28.443567 28.443567 0 1 1-56.68803-3.327897c13.453807-219.868776 165.68378-402.192044 370.164587-460.586688zM511.984214 511.984214a227.548539 227.548539 0 1 0 0-455.097079 227.548539 227.548539 0 0 0 0 455.097079z" fill="#ffffff" p-id="2091"></path><path d="M726.221164 952.006202c-14.98976-34.160724-25.997421-78.21981-29.126213-127.142746h-68.975651a170.888953 170.888953 0 0 0 98.130307 127.142746z m140.710328-0.113774A170.888953 170.888953 0 0 0 964.720477 824.863456h-68.520554c-3.128792 48.837605-14.221784 92.868248-29.296875 127.028972zM839.199014 824.863456h-85.103154c3.043462 40.958737 12.429839 79.073117 26.111195 108.455322 5.347391 11.491201 10.979217 20.763804 16.26972 27.362712a137.382431 137.382431 0 0 0 16.468826-27.476486c13.738243-29.382205 23.209951-67.439698 26.253413-108.341548z m-112.97785-184.029882A170.888953 170.888953 0 0 0 628.1193 767.976321h68.975651c3.128792-48.922936 14.136453-92.982022 29.126213-127.142747z m140.710328 0.113775c15.075091 34.160724 26.111195 78.21981 29.296874 127.028972h68.492111a170.888953 170.888953 0 0 0-97.788985-127.028972zM839.199014 767.976321c-3.043462-40.90185-12.51517-78.959343-26.253413-108.341549a137.382431 137.382431 0 0 0-16.497269-27.476486 137.382431 137.382431 0 0 0-16.241277 27.362712c-13.681356 29.382205-23.067733 67.468142-26.111195 108.455323h85.103154zM796.419888 1023.968428a227.548539 227.548539 0 1 1 0-455.097079 227.548539 227.548539 0 0 1 0 455.097079z" fill="#ffffff" p-id="2092"></path></svg>