<?xml version="1.0" standalone="no"?><!DOCTYPE svg PUBLIC "-//W3C//DTD SVG 1.1//EN" "http://www.w3.org/Graphics/SVG/1.1/DTD/svg11.dtd"><svg t="1593069695583" class="icon" viewBox="0 0 1024 1024" version="1.1" xmlns="http://www.w3.org/2000/svg" p-id="2300" xmlns:xlink="http://www.w3.org/1999/xlink" width="200" height="200"><defs><style type="text/css"></style></defs><path d="M731.428571 0c161.590857 0 292.571429 130.980571 292.571429 292.571429v438.857142c0 161.590857-130.980571 292.571429-292.571429 292.571429H292.571429C130.980571 1024 0 893.019429 0 731.428571V292.571429C0 130.980571 130.980571 0 292.571429 0h438.857142z m-64 237.714286c-61.330286 0-116.864 25.216-155.428571 65.645714-38.564571-40.429714-94.098286-65.645714-155.428571-65.645714C241.152 237.714286 146.285714 327.003429 146.285714 438.857143c0 3.108571 0.256 6.180571 0.749715 9.142857A55.222857 55.222857 0 0 0 146.285714 457.142857v274.285714a54.857143 54.857143 0 0 0 59.245715 54.674286c1.572571 0.128 3.145143 0.182857 4.754285 0.182857h54.857143a64 64 0 0 0 0-128H256V457.142857c0-3.108571-0.256-6.162286-0.768-9.142857 0.329143-1.938286 0.548571-3.913143 0.676571-5.924571L256 438.857143l0.091429-3.712C258.230857 387.072 301.714286 347.428571 356.571429 347.428571s98.340571 39.643429 100.48 87.716572L457.142857 438.857143l0.091429 3.218286c0.109714 2.011429 0.347429 3.986286 0.676571 5.906285A55.222857 55.222857 0 0 0 457.142857 457.142857v201.142857h-9.142857a64 64 0 0 0 0 128h128a64 64 0 0 0 0-128H566.857143V457.142857c0-3.108571-0.256-6.180571-0.749714-9.142857 0.310857-1.938286 0.548571-3.913143 0.658285-5.924571L566.857143 438.857143l0.091428-3.712C569.088 387.072 612.571429 347.428571 667.428571 347.428571s98.340571 39.643429 100.48 87.716572L768 438.857143l0.091429 3.218286c0.109714 2.011429 0.347429 3.986286 0.676571 5.906285A55.222857 55.222857 0 0 0 768 457.142857v201.142857h-9.142857a64 64 0 0 0 0 128h54.857143c1.609143 0 3.181714-0.054857 4.754285-0.182857A54.857143 54.857143 0 0 0 877.714286 731.428571V457.142857c0-3.108571-0.256-6.180571-0.749715-9.142857A55.222857 55.222857 0 0 0 877.714286 438.857143c0-111.853714-94.866286-201.142857-210.285715-201.142857z" p-id="2301"></path></svg>